<mxfile host="app.diagrams.net" modified="2021-07-25T07:18:47.807Z" agent="5.0 (Windows NT 10.0; Win64; x64) AppleWebKit/537.36 (KHTML, like Gecko) Chrome/91.0.4472.164 Safari/537.36" etag="JZrSAtXsAqTRJL6ZfGjH" version="14.8.6" type="github">
  <diagram name="Page-1" id="90a13364-a465-7bf4-72fc-28e22215d7a0">
    <mxGraphModel dx="1117" dy="669" grid="1" gridSize="10" guides="1" tooltips="1" connect="1" arrows="1" fold="1" page="1" pageScale="1.5" pageWidth="1169" pageHeight="826" background="none" math="0" shadow="0">
      <root>
        <mxCell id="0" style=";html=1;" />
        <mxCell id="1" style=";html=1;" parent="0" />
        <mxCell id="wcsfHPvP1JnHg5UM7OxC-2" value="Build System" style="rounded=0;whiteSpace=wrap;html=1;" vertex="1" parent="1">
          <mxGeometry x="340" y="540" width="120" height="60" as="geometry" />
        </mxCell>
        <mxCell id="wcsfHPvP1JnHg5UM7OxC-7" value="Author" style="shape=umlActor;verticalLabelPosition=bottom;verticalAlign=top;html=1;outlineConnect=0;" vertex="1" parent="1">
          <mxGeometry x="385" y="1000" width="30" height="60" as="geometry" />
        </mxCell>
        <mxCell id="wcsfHPvP1JnHg5UM7OxC-10" value="PostgreSQL" style="shape=cylinder3;whiteSpace=wrap;html=1;boundedLbl=1;backgroundOutline=1;size=15;" vertex="1" parent="1">
          <mxGeometry x="790" y="710" width="110" height="140" as="geometry" />
        </mxCell>
        <mxCell id="wcsfHPvP1JnHg5UM7OxC-11" value="Docbook XML" style="shape=note;whiteSpace=wrap;html=1;backgroundOutline=1;darkOpacity=0.05;" vertex="1" parent="1">
          <mxGeometry x="360" y="850" width="80" height="100" as="geometry" />
        </mxCell>
        <mxCell id="wcsfHPvP1JnHg5UM7OxC-13" value="Subversion" style="rounded=0;whiteSpace=wrap;html=1;" vertex="1" parent="1">
          <mxGeometry x="340" y="730" width="120" height="60" as="geometry" />
        </mxCell>
        <mxCell id="wcsfHPvP1JnHg5UM7OxC-15" value="Web System" style="rounded=0;whiteSpace=wrap;html=1;" vertex="1" parent="1">
          <mxGeometry x="785" y="530" width="120" height="60" as="geometry" />
        </mxCell>
        <mxCell id="wcsfHPvP1JnHg5UM7OxC-21" value="&lt;ul&gt;&lt;li&gt;Benutzer&lt;/li&gt;&lt;li&gt;&lt;span&gt;Rechte&lt;/span&gt;&lt;br&gt;&lt;/li&gt;&lt;li&gt;&lt;span&gt;Konfiguration&lt;/span&gt;&lt;/li&gt;&lt;li&gt;Kategorien&lt;/li&gt;&lt;li&gt;&amp;nbsp;Gruppen&lt;/li&gt;&lt;li&gt;Projekte&lt;/li&gt;&lt;li&gt;Artikel&lt;/li&gt;&lt;li&gt;Webseiten&lt;/li&gt;&lt;li&gt;Newsletter&lt;/li&gt;&lt;li&gt;Bestellungen&lt;/li&gt;&lt;li&gt;Kommentare&lt;/li&gt;&lt;li&gt;Bewertungen&lt;/li&gt;&lt;/ul&gt;" style="text;html=1;strokeColor=none;fillColor=none;align=left;verticalAlign=middle;whiteSpace=wrap;rounded=0;" vertex="1" parent="1">
          <mxGeometry x="930" y="549" width="40" height="20" as="geometry" />
        </mxCell>
        <mxCell id="wcsfHPvP1JnHg5UM7OxC-22" value="&lt;ul&gt;&lt;li&gt;PDF&lt;/li&gt;&lt;li&gt;Lernprogramm&lt;/li&gt;&lt;li&gt;Epub&lt;/li&gt;&lt;li&gt;SCORM&lt;/li&gt;&lt;li&gt;Website&lt;/li&gt;&lt;li&gt;VLB&lt;/li&gt;&lt;/ul&gt;" style="text;html=1;strokeColor=none;fillColor=none;align=left;verticalAlign=middle;whiteSpace=wrap;rounded=0;" vertex="1" parent="1">
          <mxGeometry x="200" y="560" width="40" height="20" as="geometry" />
        </mxCell>
        <mxCell id="wcsfHPvP1JnHg5UM7OxC-23" value="Inhaltsseiten" style="rounded=0;whiteSpace=wrap;html=1;" vertex="1" parent="1">
          <mxGeometry x="720" y="360" width="120" height="60" as="geometry" />
        </mxCell>
        <mxCell id="wcsfHPvP1JnHg5UM7OxC-24" value="Shop" style="rounded=0;whiteSpace=wrap;html=1;" vertex="1" parent="1">
          <mxGeometry x="890" y="360" width="120" height="60" as="geometry" />
        </mxCell>
        <mxCell id="wcsfHPvP1JnHg5UM7OxC-25" value="Druckerei" style="rounded=0;whiteSpace=wrap;html=1;" vertex="1" parent="1">
          <mxGeometry x="210" y="290" width="120" height="60" as="geometry" />
        </mxCell>
        <mxCell id="wcsfHPvP1JnHg5UM7OxC-26" value="Document Storage" style="rounded=0;whiteSpace=wrap;html=1;" vertex="1" parent="1">
          <mxGeometry x="550" y="480" width="120" height="60" as="geometry" />
        </mxCell>
        <mxCell id="wcsfHPvP1JnHg5UM7OxC-27" value="Barsortimenter" style="rounded=0;whiteSpace=wrap;html=1;" vertex="1" parent="1">
          <mxGeometry x="365" y="170" width="120" height="60" as="geometry" />
        </mxCell>
        <mxCell id="wcsfHPvP1JnHg5UM7OxC-28" value="Buchhandlungen" style="rounded=0;whiteSpace=wrap;html=1;" vertex="1" parent="1">
          <mxGeometry x="590" y="170" width="120" height="60" as="geometry" />
        </mxCell>
        <mxCell id="wcsfHPvP1JnHg5UM7OxC-29" value="Kunde" style="shape=umlActor;verticalLabelPosition=bottom;verticalAlign=top;html=1;outlineConnect=0;" vertex="1" parent="1">
          <mxGeometry x="847" y="190" width="30" height="60" as="geometry" />
        </mxCell>
        <mxCell id="wcsfHPvP1JnHg5UM7OxC-30" value="VLB" style="rounded=0;whiteSpace=wrap;html=1;" vertex="1" parent="1">
          <mxGeometry x="405" y="290" width="120" height="60" as="geometry" />
        </mxCell>
        <mxCell id="wcsfHPvP1JnHg5UM7OxC-33" value="Versand" style="rounded=0;whiteSpace=wrap;html=1;" vertex="1" parent="1">
          <mxGeometry x="540" y="360" width="120" height="60" as="geometry" />
        </mxCell>
        <mxCell id="wcsfHPvP1JnHg5UM7OxC-34" value="SCORM LMS" style="rounded=0;whiteSpace=wrap;html=1;" vertex="1" parent="1">
          <mxGeometry x="1020" y="110" width="120" height="60" as="geometry" />
        </mxCell>
      </root>
    </mxGraphModel>
  </diagram>
</mxfile>
